<mxfile host="Electron" modified="2023-12-07T09:29:13.790Z" agent="Mozilla/5.0 (Windows NT 10.0; Win64; x64) AppleWebKit/537.36 (KHTML, like Gecko) draw.io/22.1.2 Chrome/114.0.5735.289 Electron/25.9.4 Safari/537.36" etag="a0qtmpwcLHhO9z4jM9LS" version="22.1.2" type="device">
  <diagram id="10glaCfFHjlpt_X564yJ" name="Page-1">
    <mxGraphModel dx="-701" dy="722" grid="1" gridSize="10" guides="1" tooltips="1" connect="1" arrows="1" fold="1" page="1" pageScale="1" pageWidth="1920" pageHeight="1200" math="0" shadow="0">
      <root>
        <mxCell id="0" />
        <mxCell id="1" parent="0" />
        <mxCell id="8y-kme8FLULvX650RVpN-196" value="" style="rounded=0;whiteSpace=wrap;html=1;fontSize=25;fillColor=#f5f5f5;fontColor=#333333;strokeColor=#666666;direction=east;strokeWidth=2;fontStyle=1" parent="1" vertex="1">
          <mxGeometry x="3750" y="130" width="1910" height="1070" as="geometry" />
        </mxCell>
        <mxCell id="8y-kme8FLULvX650RVpN-197" value="" style="rounded=0;whiteSpace=wrap;html=1;fontSize=19;" parent="1" vertex="1">
          <mxGeometry x="3780" y="180" width="1860" height="980" as="geometry" />
        </mxCell>
        <mxCell id="8y-kme8FLULvX650RVpN-198" value="ID LIFECYCLE MANAGEMENT" style="text;html=1;align=center;verticalAlign=middle;resizable=0;points=[];autosize=1;strokeColor=none;fillColor=none;fontStyle=1;fontSize=30;" parent="1" vertex="1">
          <mxGeometry x="4475" y="131" width="460" height="50" as="geometry" />
        </mxCell>
        <mxCell id="8y-kme8FLULvX650RVpN-199" value="&lt;span style=&quot;font-size: 28px;&quot;&gt;2&lt;/span&gt;" style="ellipse;whiteSpace=wrap;html=1;aspect=fixed;fontSize=12;fontStyle=1;rounded=0;strokeWidth=2;" parent="1" vertex="1">
          <mxGeometry x="3807" y="136" width="40" height="40" as="geometry" />
        </mxCell>
        <mxCell id="8y-kme8FLULvX650RVpN-188" value="" style="rounded=0;whiteSpace=wrap;html=1;fontSize=25;fillColor=#f5f5f5;fontColor=#333333;strokeColor=#666666;direction=east;strokeWidth=2;fontStyle=1" parent="1" vertex="1">
          <mxGeometry x="5790" y="160" width="1910" height="1070" as="geometry" />
        </mxCell>
        <mxCell id="8y-kme8FLULvX650RVpN-183" value="" style="rounded=0;whiteSpace=wrap;html=1;fontSize=25;fillColor=#f5f5f5;fontColor=#333333;strokeColor=#666666;direction=east;strokeWidth=2;fontStyle=1" parent="1" vertex="1">
          <mxGeometry x="8180" y="160" width="1910" height="1070" as="geometry" />
        </mxCell>
        <mxCell id="8y-kme8FLULvX650RVpN-184" value="" style="rounded=0;whiteSpace=wrap;html=1;fontSize=19;" parent="1" vertex="1">
          <mxGeometry x="8210" y="210" width="1860" height="980" as="geometry" />
        </mxCell>
        <mxCell id="8y-kme8FLULvX650RVpN-185" value="ONBOARDING" style="text;html=1;align=center;verticalAlign=middle;resizable=0;points=[];autosize=1;strokeColor=none;fillColor=none;fontStyle=1;fontSize=30;" parent="1" vertex="1">
          <mxGeometry x="9020" y="161" width="230" height="50" as="geometry" />
        </mxCell>
        <mxCell id="8y-kme8FLULvX650RVpN-186" value="&lt;span style=&quot;font-size: 28px;&quot;&gt;1&lt;/span&gt;" style="ellipse;whiteSpace=wrap;html=1;aspect=fixed;fontSize=12;fontStyle=1;rounded=0;strokeWidth=2;" parent="1" vertex="1">
          <mxGeometry x="8237" y="166" width="40" height="40" as="geometry" />
        </mxCell>
        <mxCell id="8y-kme8FLULvX650RVpN-130" value="REGISTER NEW ACCOUNT OB.1.1.A" style="rounded=0;whiteSpace=wrap;html=1;strokeWidth=2;fontStyle=1;" parent="1" vertex="1">
          <mxGeometry x="8290" y="240" width="170" height="60" as="geometry" />
        </mxCell>
        <mxCell id="8y-kme8FLULvX650RVpN-131" value="INITIATING AN ONLINE APPLICATION OB.1.1.B" style="rounded=0;whiteSpace=wrap;html=1;strokeWidth=2;fontStyle=1;" parent="1" vertex="1">
          <mxGeometry x="8290" y="350" width="170" height="70" as="geometry" />
        </mxCell>
        <mxCell id="8y-kme8FLULvX650RVpN-132" value="ONLINE APPLICATION_SELF-INITIATED OB.1.2.A" style="rounded=0;whiteSpace=wrap;html=1;strokeWidth=2;fontStyle=1;" parent="1" vertex="1">
          <mxGeometry x="8530" y="240" width="170" height="70" as="geometry" />
        </mxCell>
        <mxCell id="8y-kme8FLULvX650RVpN-133" value="ONLINE APPLICATION_APPLICATION BY PARENT_GUARDIAN OB.1.2.B" style="rounded=0;whiteSpace=wrap;html=1;strokeWidth=2;fontStyle=1;" parent="1" vertex="1">
          <mxGeometry x="8530" y="360" width="170" height="80" as="geometry" />
        </mxCell>
        <mxCell id="8y-kme8FLULvX650RVpN-134" value="ONLINE APPLICATION_APPLICATION INITIATED BY INTRODUCER&amp;nbsp; OB.1.2.C" style="rounded=0;whiteSpace=wrap;html=1;strokeWidth=2;fontStyle=1;" parent="1" vertex="1">
          <mxGeometry x="8530" y="480" width="170" height="80" as="geometry" />
        </mxCell>
        <mxCell id="8y-kme8FLULvX650RVpN-135" value="OFFLINE APPLICATION_SELF-INITIATED OB.1.3.A" style="rounded=0;whiteSpace=wrap;html=1;strokeWidth=2;fontStyle=1;" parent="1" vertex="1">
          <mxGeometry x="8760" y="240" width="170" height="80" as="geometry" />
        </mxCell>
        <mxCell id="8y-kme8FLULvX650RVpN-136" value="OFFLINE APPLICATION_APPLICATION BY PARENT_GUARDIAN OB.1.3.B" style="rounded=0;whiteSpace=wrap;html=1;strokeWidth=2;fontStyle=1;" parent="1" vertex="1">
          <mxGeometry x="8760" y="363" width="170" height="80" as="geometry" />
        </mxCell>
        <mxCell id="8y-kme8FLULvX650RVpN-137" value="OFFLINE APPLICATION_APPLICATION BY INTRODUCER OB.1.3.C" style="rounded=0;whiteSpace=wrap;html=1;strokeWidth=2;fontStyle=1;" parent="1" vertex="1">
          <mxGeometry x="8760" y="458.5" width="170" height="80" as="geometry" />
        </mxCell>
        <mxCell id="8y-kme8FLULvX650RVpN-138" value="PRE-REGISTRATION_APPOINTMENT BOOKING OB.1.3.D" style="rounded=0;whiteSpace=wrap;html=1;strokeWidth=2;fontStyle=1;" parent="1" vertex="1">
          <mxGeometry x="8760" y="578" width="170" height="80" as="geometry" />
        </mxCell>
        <mxCell id="8y-kme8FLULvX650RVpN-139" value="OFFLINE BIOMETRIC COLLECTION_APPOINTMENT OB.1.3.E" style="rounded=0;whiteSpace=wrap;html=1;strokeWidth=2;fontStyle=1;" parent="1" vertex="1">
          <mxGeometry x="8760" y="678" width="170" height="80" as="geometry" />
        </mxCell>
        <mxCell id="8y-kme8FLULvX650RVpN-140" value="OFFLINE BIOMETRIC COLLECTION_CONSENT OB.1.4.A" style="rounded=0;whiteSpace=wrap;html=1;strokeWidth=2;fontStyle=1;" parent="1" vertex="1">
          <mxGeometry x="8980" y="240" width="170" height="80" as="geometry" />
        </mxCell>
        <mxCell id="8y-kme8FLULvX650RVpN-141" value="OFFLINE BIOMETRIC COLLECTION_FACIAL DATA OB.1.4.B" style="rounded=0;whiteSpace=wrap;html=1;strokeWidth=2;fontStyle=1;" parent="1" vertex="1">
          <mxGeometry x="8980" y="330" width="170" height="80" as="geometry" />
        </mxCell>
        <mxCell id="8y-kme8FLULvX650RVpN-142" value="OFFLINE BIOMETRIC COLLECTION_FINGERPRINT DATA OB.1.4.C" style="rounded=0;whiteSpace=wrap;html=1;strokeWidth=2;fontStyle=1;" parent="1" vertex="1">
          <mxGeometry x="8980" y="430" width="170" height="80" as="geometry" />
        </mxCell>
        <mxCell id="8y-kme8FLULvX650RVpN-143" value="OFFLINE BIOMETRIC COLLECTION_IRIS DATA OB.1.4.D" style="rounded=0;whiteSpace=wrap;html=1;strokeWidth=2;fontStyle=1;" parent="1" vertex="1">
          <mxGeometry x="8980" y="530" width="170" height="80" as="geometry" />
        </mxCell>
        <mxCell id="8y-kme8FLULvX650RVpN-144" value="APPLICATION APPROVAL_REJECTION OB.1.4.E" style="rounded=0;whiteSpace=wrap;html=1;strokeWidth=2;fontStyle=1;" parent="1" vertex="1">
          <mxGeometry x="9210" y="240" width="170" height="80" as="geometry" />
        </mxCell>
        <mxCell id="8y-kme8FLULvX650RVpN-145" value="VALIDATION OF PROOF-OF-IDENTITY AND PROOF-OF-ADDRESS OB.2.A" style="rounded=0;whiteSpace=wrap;html=1;strokeWidth=2;fontStyle=1;" parent="1" vertex="1">
          <mxGeometry x="9400" y="239.5" width="170" height="80" as="geometry" />
        </mxCell>
        <mxCell id="8y-kme8FLULvX650RVpN-146" value="VALIDATION OF PROOF-OF-RELATIONSHIP OB.2.B" style="rounded=0;whiteSpace=wrap;html=1;strokeWidth=2;fontStyle=1;" parent="1" vertex="1">
          <mxGeometry x="9400" y="340.5" width="170" height="80" as="geometry" />
        </mxCell>
        <mxCell id="8y-kme8FLULvX650RVpN-147" value="VERIFICATION OF PROOF-OF-IDENTITY&amp;nbsp; &amp;nbsp;OB.3.A" style="rounded=0;whiteSpace=wrap;html=1;strokeWidth=2;fontStyle=1;" parent="1" vertex="1">
          <mxGeometry x="9620" y="239.5" width="170" height="80" as="geometry" />
        </mxCell>
        <mxCell id="8y-kme8FLULvX650RVpN-148" value="VERIFICATION OF PROOF-OF-ADDRESS OB.3.B" style="rounded=0;whiteSpace=wrap;html=1;strokeWidth=2;fontStyle=1;" parent="1" vertex="1">
          <mxGeometry x="9620" y="340.5" width="170" height="80" as="geometry" />
        </mxCell>
        <mxCell id="8y-kme8FLULvX650RVpN-149" value="VERIFYING RELATIONSHIP IN PROOF-OF-RELATIONSHIP OB.3.C" style="rounded=0;whiteSpace=wrap;html=1;strokeWidth=2;fontStyle=1;" parent="1" vertex="1">
          <mxGeometry x="9620" y="438.5" width="170" height="80" as="geometry" />
        </mxCell>
        <mxCell id="8y-kme8FLULvX650RVpN-150" value="CREATING NEW DIGITAL ID ACCOUNT OB.4.A" style="rounded=0;whiteSpace=wrap;html=1;strokeWidth=2;fontStyle=1;" parent="1" vertex="1">
          <mxGeometry x="9830" y="240.5" width="170" height="80" as="geometry" />
        </mxCell>
        <mxCell id="8y-kme8FLULvX650RVpN-151" value="BINDING AUTHENTICATORS TO USER IDENTIFICATION NUMBER&amp;nbsp; OB.4.B" style="rounded=0;whiteSpace=wrap;html=1;strokeWidth=2;fontStyle=1;" parent="1" vertex="1">
          <mxGeometry x="9830" y="330.5" width="170" height="80" as="geometry" />
        </mxCell>
        <mxCell id="8y-kme8FLULvX650RVpN-152" value="DELIVERY OF DIGITAL ID &amp;amp; FTP CREDENTIALS TO SUBSCRIBER OB.4.C" style="rounded=0;whiteSpace=wrap;html=1;strokeWidth=2;fontStyle=1;" parent="1" vertex="1">
          <mxGeometry x="9830" y="420.5" width="170" height="80" as="geometry" />
        </mxCell>
        <mxCell id="8y-kme8FLULvX650RVpN-153" value="ACTIVATION OF DIGITAL ID ACCOUNT OB.4.D" style="rounded=0;whiteSpace=wrap;html=1;strokeWidth=2;fontStyle=1;" parent="1" vertex="1">
          <mxGeometry x="9830" y="520.5" width="170" height="80" as="geometry" />
        </mxCell>
        <mxCell id="8y-kme8FLULvX650RVpN-169" value="UPDATING ONLINE_PERSONALLY IDENTIFIABLE INFORMATION LM.1.A" style="rounded=0;whiteSpace=wrap;html=1;strokeWidth=2;fontStyle=1;" parent="1" vertex="1">
          <mxGeometry x="3810" y="232.5" width="170" height="80" as="geometry" />
        </mxCell>
        <mxCell id="8y-kme8FLULvX650RVpN-170" value="UPDATING OFFLINE_PERSONALLY IDENTIFIABLE INFORMATION LM.1.B" style="rounded=0;whiteSpace=wrap;html=1;strokeWidth=2;fontStyle=1;" parent="1" vertex="1">
          <mxGeometry x="3810" y="355.5" width="170" height="80" as="geometry" />
        </mxCell>
        <mxCell id="8y-kme8FLULvX650RVpN-171" value="UPDATE ONLINE_BIOMETRICS DATA LM.1.C" style="rounded=0;whiteSpace=wrap;html=1;strokeWidth=2;fontStyle=1;" parent="1" vertex="1">
          <mxGeometry x="3810" y="451" width="170" height="80" as="geometry" />
        </mxCell>
        <mxCell id="8y-kme8FLULvX650RVpN-172" value="UPDATE OFFLINE_BIOMETRICS DATA LM.1.D" style="rounded=0;whiteSpace=wrap;html=1;strokeWidth=2;fontStyle=1;" parent="1" vertex="1">
          <mxGeometry x="3810" y="570.5" width="170" height="80" as="geometry" />
        </mxCell>
        <mxCell id="8y-kme8FLULvX650RVpN-173" value="REQUEST NEW DID PHYSICAL CARD (LOST_THEFT_DAMAGED) LM.1.E" style="rounded=0;whiteSpace=wrap;html=1;strokeWidth=2;fontStyle=1;" parent="1" vertex="1">
          <mxGeometry x="3810" y="670.5" width="170" height="80" as="geometry" />
        </mxCell>
        <mxCell id="8y-kme8FLULvX650RVpN-174" value="REPORTING ONLINE_COMPROMISED AUTHENTICATORS&amp;nbsp; LM.3.A" style="rounded=0;whiteSpace=wrap;html=1;strokeWidth=2;fontStyle=1;" parent="1" vertex="1">
          <mxGeometry x="4000" y="230" width="170" height="80" as="geometry" />
        </mxCell>
        <mxCell id="8y-kme8FLULvX650RVpN-175" value="REPORTING OFFLINE_COMPROMISED AUTHENTICATORS LM.3.B" style="rounded=0;whiteSpace=wrap;html=1;strokeWidth=2;fontStyle=1;" parent="1" vertex="1">
          <mxGeometry x="4000" y="320" width="170" height="80" as="geometry" />
        </mxCell>
        <mxCell id="8y-kme8FLULvX650RVpN-176" value="EXPIRY AND RENEWAL DID ACCOUNT LM.4.A" style="rounded=0;whiteSpace=wrap;html=1;strokeWidth=2;fontStyle=1;" parent="1" vertex="1">
          <mxGeometry x="4190" y="231" width="170" height="80" as="geometry" />
        </mxCell>
        <mxCell id="8y-kme8FLULvX650RVpN-177" value="EXPIRY AND RENEWAL OF AUTHENTICATORS (OTP, TOKEN VALIDITY) LM.4.B" style="rounded=0;whiteSpace=wrap;html=1;strokeWidth=2;fontStyle=1;" parent="1" vertex="1">
          <mxGeometry x="4190" y="331" width="170" height="80" as="geometry" />
        </mxCell>
        <mxCell id="8y-kme8FLULvX650RVpN-178" value="TEMPORARY ACCOUNT SUSPENSION (FRAUD, INELIGIBILITY, GOVERNMENT ORDER) LM.5.A" style="rounded=0;whiteSpace=wrap;html=1;strokeWidth=2;fontStyle=1;" parent="1" vertex="1">
          <mxGeometry x="4390" y="230" width="170" height="80" as="geometry" />
        </mxCell>
        <mxCell id="8y-kme8FLULvX650RVpN-179" value="PERMANENT ACCOUNT DELETION (BY CHOICE) LM.5.B" style="rounded=0;whiteSpace=wrap;html=1;strokeWidth=2;fontStyle=1;" parent="1" vertex="1">
          <mxGeometry x="4390" y="350" width="170" height="80" as="geometry" />
        </mxCell>
        <mxCell id="8y-kme8FLULvX650RVpN-180" value="PERMANENT ACCOUNT DELETION (UPON DEATH) LM.5.C" style="rounded=0;whiteSpace=wrap;html=1;strokeWidth=2;fontStyle=1;" parent="1" vertex="1">
          <mxGeometry x="4390" y="470" width="170" height="80" as="geometry" />
        </mxCell>
        <mxCell id="8y-kme8FLULvX650RVpN-187" value="" style="rounded=0;whiteSpace=wrap;html=1;fontSize=19;" parent="1" vertex="1">
          <mxGeometry x="5820" y="210" width="1860" height="980" as="geometry" />
        </mxCell>
        <mxCell id="8y-kme8FLULvX650RVpN-189" value="AUTHENTICATION" style="text;html=1;align=center;verticalAlign=middle;resizable=0;points=[];autosize=1;strokeColor=none;fillColor=none;fontStyle=1;fontSize=30;" parent="1" vertex="1">
          <mxGeometry x="6600" y="161" width="290" height="50" as="geometry" />
        </mxCell>
        <mxCell id="8y-kme8FLULvX650RVpN-190" value="&lt;span style=&quot;font-size: 28px;&quot;&gt;2&lt;/span&gt;" style="ellipse;whiteSpace=wrap;html=1;aspect=fixed;fontSize=12;fontStyle=1;rounded=0;strokeWidth=2;" parent="1" vertex="1">
          <mxGeometry x="5847" y="166" width="40" height="40" as="geometry" />
        </mxCell>
        <mxCell id="8y-kme8FLULvX650RVpN-154" value="CREATION OF STRONG PASSWORD AU.1.A" style="rounded=0;whiteSpace=wrap;html=1;strokeWidth=2;fontStyle=1;" parent="1" vertex="1">
          <mxGeometry x="5940" y="249.5" width="170" height="80" as="geometry" />
        </mxCell>
        <mxCell id="8y-kme8FLULvX650RVpN-155" value="PASSWORD-BASED AUTHENTICATION AU.1.B" style="rounded=0;whiteSpace=wrap;html=1;strokeWidth=2;fontStyle=1;" parent="1" vertex="1">
          <mxGeometry x="5940" y="369.5" width="170" height="80" as="geometry" />
        </mxCell>
        <mxCell id="8y-kme8FLULvX650RVpN-156" value="CREATION OF MEMORABLE SECRET AU.1.C" style="rounded=0;whiteSpace=wrap;html=1;strokeWidth=2;fontStyle=1;" parent="1" vertex="1">
          <mxGeometry x="5940" y="489.5" width="170" height="80" as="geometry" />
        </mxCell>
        <mxCell id="8y-kme8FLULvX650RVpN-157" value="MEMORABLE SECRET-BASED AUTHENTICATION AU.1.D" style="rounded=0;whiteSpace=wrap;html=1;strokeWidth=2;fontStyle=1;" parent="1" vertex="1">
          <mxGeometry x="5940" y="611.5" width="170" height="80" as="geometry" />
        </mxCell>
        <mxCell id="8y-kme8FLULvX650RVpN-158" value="CREATION OF PERSONAL IDENTIFICATION NUMBER AU.1.E" style="rounded=0;whiteSpace=wrap;html=1;strokeWidth=2;fontStyle=1;" parent="1" vertex="1">
          <mxGeometry x="5940" y="734.5" width="170" height="80" as="geometry" />
        </mxCell>
        <mxCell id="8y-kme8FLULvX650RVpN-159" value="PERSONAL IDENTIFICATION NUMBER BASED AUTHENTICATION AU.1.F" style="rounded=0;whiteSpace=wrap;html=1;strokeWidth=2;fontStyle=1;" parent="1" vertex="1">
          <mxGeometry x="5940" y="830" width="170" height="80" as="geometry" />
        </mxCell>
        <mxCell id="8y-kme8FLULvX650RVpN-160" value="GENERATION OF ONE-TIME PASSWORD AU.2.A" style="rounded=0;whiteSpace=wrap;html=1;strokeWidth=2;fontStyle=1;" parent="1" vertex="1">
          <mxGeometry x="6220" y="249.5" width="170" height="80" as="geometry" />
        </mxCell>
        <mxCell id="8y-kme8FLULvX650RVpN-161" value="MULTI-USER ONE-TIME PASSWORD AUTHENTICATION AU.2.C" style="rounded=0;whiteSpace=wrap;html=1;strokeWidth=2;fontStyle=1;" parent="1" vertex="1">
          <mxGeometry x="6220" y="349.5" width="170" height="80" as="geometry" />
        </mxCell>
        <mxCell id="8y-kme8FLULvX650RVpN-162" value="CREATION OF MULTI-USER ONE-TIME PASSWORD AU.2.B" style="rounded=0;whiteSpace=wrap;html=1;strokeWidth=2;fontStyle=1;" parent="1" vertex="1">
          <mxGeometry x="6220" y="439.5" width="170" height="80" as="geometry" />
        </mxCell>
        <mxCell id="8y-kme8FLULvX650RVpN-163" value="GENERATION OF TOKEN (SHARED CODE) AU.2.D" style="rounded=0;whiteSpace=wrap;html=1;strokeWidth=2;fontStyle=1;" parent="1" vertex="1">
          <mxGeometry x="6220" y="529.5" width="170" height="80" as="geometry" />
        </mxCell>
        <mxCell id="8y-kme8FLULvX650RVpN-164" value="TOKEN-BASED AUTHENTICATION AU.2.E" style="rounded=0;whiteSpace=wrap;html=1;strokeWidth=2;fontStyle=1;" parent="1" vertex="1">
          <mxGeometry x="6220" y="629.5" width="170" height="80" as="geometry" />
        </mxCell>
        <mxCell id="8y-kme8FLULvX650RVpN-192" value="BIOMETRIC AUTHENTICATION_FINGERPRINT DATA AU.3.B" style="rounded=0;whiteSpace=wrap;html=1;strokeWidth=2;fontStyle=1;" parent="1" vertex="1">
          <mxGeometry x="6480" y="349.5" width="170" height="80" as="geometry" />
        </mxCell>
        <mxCell id="8y-kme8FLULvX650RVpN-193" value="BIOMETRIC AUTHENTICATION_IRIS DATA AU.3.C" style="rounded=0;whiteSpace=wrap;html=1;strokeWidth=2;fontStyle=1;" parent="1" vertex="1">
          <mxGeometry x="6480" y="469.5" width="170" height="80" as="geometry" />
        </mxCell>
        <mxCell id="8y-kme8FLULvX650RVpN-194" value="BIOMETRIC AUTHENTICATION_FACIAL DATA AU.3.D" style="rounded=0;whiteSpace=wrap;html=1;strokeWidth=2;fontStyle=1;" parent="1" vertex="1">
          <mxGeometry x="6480" y="589.5" width="170" height="80" as="geometry" />
        </mxCell>
        <mxCell id="8y-kme8FLULvX650RVpN-195" value="OBTAINING CLAIMANT CONSENT AU.3.A" style="rounded=0;whiteSpace=wrap;html=1;strokeWidth=2;fontStyle=1;" parent="1" vertex="1">
          <mxGeometry x="6480" y="249.5" width="170" height="80" as="geometry" />
        </mxCell>
        <mxCell id="8y-kme8FLULvX650RVpN-200" value="" style="rounded=0;whiteSpace=wrap;html=1;fontSize=25;fillColor=#f5f5f5;fontColor=#333333;strokeColor=#666666;direction=east;strokeWidth=2;fontStyle=1" parent="1" vertex="1">
          <mxGeometry x="8160" y="1530" width="1450" height="1660" as="geometry" />
        </mxCell>
        <mxCell id="8y-kme8FLULvX650RVpN-243" value="" style="rounded=0;whiteSpace=wrap;html=1;fontSize=19;" parent="1" vertex="1">
          <mxGeometry x="8190" y="2230" width="1400" height="330" as="geometry" />
        </mxCell>
        <mxCell id="8y-kme8FLULvX650RVpN-242" value="" style="rounded=0;whiteSpace=wrap;html=1;fontSize=19;" parent="1" vertex="1">
          <mxGeometry x="8190" y="1900" width="1400" height="330" as="geometry" />
        </mxCell>
        <mxCell id="8y-kme8FLULvX650RVpN-201" value="" style="rounded=0;whiteSpace=wrap;html=1;fontSize=19;" parent="1" vertex="1">
          <mxGeometry x="8190" y="1580" width="1400" height="320" as="geometry" />
        </mxCell>
        <mxCell id="8y-kme8FLULvX650RVpN-202" value="ONBOARDING" style="text;html=1;align=center;verticalAlign=middle;resizable=0;points=[];autosize=1;strokeColor=none;fillColor=none;fontStyle=1;fontSize=30;" parent="1" vertex="1">
          <mxGeometry x="8850" y="1530" width="230" height="50" as="geometry" />
        </mxCell>
        <mxCell id="8y-kme8FLULvX650RVpN-253" style="edgeStyle=orthogonalEdgeStyle;rounded=0;orthogonalLoop=1;jettySize=auto;html=1;exitX=1;exitY=0.5;exitDx=0;exitDy=0;entryX=0.5;entryY=0;entryDx=0;entryDy=0;entryPerimeter=0;strokeColor=#00CC00;strokeWidth=2;fontStyle=1;" parent="1" source="8y-kme8FLULvX650RVpN-206" target="8y-kme8FLULvX650RVpN-262" edge="1">
          <mxGeometry relative="1" as="geometry">
            <Array as="points">
              <mxPoint x="9119" y="1655" />
              <mxPoint x="9119" y="2270" />
              <mxPoint x="8350" y="2270" />
            </Array>
          </mxGeometry>
        </mxCell>
        <mxCell id="8y-kme8FLULvX650RVpN-206" value="ONLINE APPLICATION &lt;br&gt;SELF-INITIATED &lt;br&gt;OB.1.2.A" style="rounded=0;whiteSpace=wrap;html=1;strokeWidth=2;fontStyle=1;" parent="1" vertex="1">
          <mxGeometry x="8889" y="1620" width="170" height="70" as="geometry" />
        </mxCell>
        <mxCell id="8y-kme8FLULvX650RVpN-252" style="edgeStyle=orthogonalEdgeStyle;rounded=0;orthogonalLoop=1;jettySize=auto;html=1;exitX=1;exitY=0.5;exitDx=0;exitDy=0;entryX=0.5;entryY=0;entryDx=0;entryDy=0;entryPerimeter=0;strokeColor=#00CC00;strokeWidth=2;fontStyle=1;" parent="1" source="8y-kme8FLULvX650RVpN-207" target="8y-kme8FLULvX650RVpN-262" edge="1">
          <mxGeometry relative="1" as="geometry">
            <Array as="points">
              <mxPoint x="9119" y="1738" />
              <mxPoint x="9119" y="2270" />
              <mxPoint x="8350" y="2270" />
            </Array>
          </mxGeometry>
        </mxCell>
        <mxCell id="8y-kme8FLULvX650RVpN-207" value="ONLINE APPLICATION&lt;br&gt;APPLICATION BY PARENT/GUARDIAN OB.1.2.B" style="rounded=0;whiteSpace=wrap;html=1;strokeWidth=2;fontStyle=1;" parent="1" vertex="1">
          <mxGeometry x="8889" y="1698.25" width="170" height="80" as="geometry" />
        </mxCell>
        <mxCell id="8y-kme8FLULvX650RVpN-251" style="edgeStyle=orthogonalEdgeStyle;rounded=0;orthogonalLoop=1;jettySize=auto;html=1;exitX=1;exitY=0.5;exitDx=0;exitDy=0;entryX=0.5;entryY=0;entryDx=0;entryDy=0;entryPerimeter=0;strokeColor=#00CC00;strokeWidth=2;fontStyle=1;" parent="1" source="8y-kme8FLULvX650RVpN-208" target="8y-kme8FLULvX650RVpN-262" edge="1">
          <mxGeometry relative="1" as="geometry">
            <Array as="points">
              <mxPoint x="9119" y="1821" />
              <mxPoint x="9119" y="2270" />
              <mxPoint x="8350" y="2270" />
            </Array>
          </mxGeometry>
        </mxCell>
        <mxCell id="8y-kme8FLULvX650RVpN-208" value="ONLINE APPLICATION&lt;br&gt;APPLICATION INITIATED BY INTRODUCER&amp;nbsp; &lt;br&gt;OB.1.2.C" style="rounded=0;whiteSpace=wrap;html=1;strokeWidth=2;fontStyle=1;" parent="1" vertex="1">
          <mxGeometry x="8889" y="1787" width="170" height="67" as="geometry" />
        </mxCell>
        <mxCell id="8y-kme8FLULvX650RVpN-234" style="edgeStyle=orthogonalEdgeStyle;rounded=0;orthogonalLoop=1;jettySize=auto;html=1;exitX=1;exitY=0.5;exitDx=0;exitDy=0;entryX=0;entryY=0.25;entryDx=0;entryDy=0;strokeColor=#00CC00;strokeWidth=2;fontStyle=1;" parent="1" source="8y-kme8FLULvX650RVpN-209" target="8y-kme8FLULvX650RVpN-212" edge="1">
          <mxGeometry relative="1" as="geometry" />
        </mxCell>
        <mxCell id="8y-kme8FLULvX650RVpN-209" value="OFFLINE APPLICATION SELF-INITIATED &lt;br&gt;OB.1.3.A" style="rounded=0;whiteSpace=wrap;html=1;strokeWidth=2;fontStyle=1;" parent="1" vertex="1">
          <mxGeometry x="8454" y="1935" width="170" height="80" as="geometry" />
        </mxCell>
        <mxCell id="8y-kme8FLULvX650RVpN-235" style="edgeStyle=orthogonalEdgeStyle;rounded=0;orthogonalLoop=1;jettySize=auto;html=1;exitX=1;exitY=0.5;exitDx=0;exitDy=0;entryX=0;entryY=0.5;entryDx=0;entryDy=0;strokeColor=#00CC00;strokeWidth=2;fontStyle=1;" parent="1" source="8y-kme8FLULvX650RVpN-210" target="8y-kme8FLULvX650RVpN-212" edge="1">
          <mxGeometry relative="1" as="geometry" />
        </mxCell>
        <mxCell id="8y-kme8FLULvX650RVpN-210" value="OFFLINE APPLICATION - APPLICATION BY PARENT/GUARDIAN OB.1.3.B" style="rounded=0;whiteSpace=wrap;html=1;strokeWidth=2;fontStyle=1;" parent="1" vertex="1">
          <mxGeometry x="8454" y="2029.5" width="170" height="80" as="geometry" />
        </mxCell>
        <mxCell id="8y-kme8FLULvX650RVpN-236" style="edgeStyle=orthogonalEdgeStyle;rounded=0;orthogonalLoop=1;jettySize=auto;html=1;exitX=1;exitY=0.5;exitDx=0;exitDy=0;entryX=0;entryY=0.75;entryDx=0;entryDy=0;fontStyle=1;strokeColor=#00CC00;strokeWidth=2;" parent="1" source="8y-kme8FLULvX650RVpN-211" target="8y-kme8FLULvX650RVpN-212" edge="1">
          <mxGeometry relative="1" as="geometry" />
        </mxCell>
        <mxCell id="8y-kme8FLULvX650RVpN-211" value="OFFLINE APPLICATION - APPLICATION BY INTRODUCER &lt;br&gt;OB.1.3.C" style="rounded=0;whiteSpace=wrap;html=1;strokeWidth=2;fontStyle=1;" parent="1" vertex="1">
          <mxGeometry x="8454" y="2125" width="170" height="80" as="geometry" />
        </mxCell>
        <mxCell id="8y-kme8FLULvX650RVpN-241" style="edgeStyle=orthogonalEdgeStyle;rounded=0;orthogonalLoop=1;jettySize=auto;html=1;exitX=1;exitY=0.5;exitDx=0;exitDy=0;strokeColor=#00CC00;strokeWidth=2;fontStyle=1;" parent="1" source="8y-kme8FLULvX650RVpN-212" target="8y-kme8FLULvX650RVpN-213" edge="1">
          <mxGeometry relative="1" as="geometry" />
        </mxCell>
        <mxCell id="8y-kme8FLULvX650RVpN-212" value="PRE-REGISTRATION - APPOINTMENT BOOKING OB.1.3.D" style="rounded=0;whiteSpace=wrap;html=1;strokeWidth=2;fontStyle=1;" parent="1" vertex="1">
          <mxGeometry x="8719" y="2030" width="170" height="80" as="geometry" />
        </mxCell>
        <mxCell id="8y-kme8FLULvX650RVpN-250" style="edgeStyle=orthogonalEdgeStyle;rounded=0;orthogonalLoop=1;jettySize=auto;html=1;exitX=1;exitY=0.5;exitDx=0;exitDy=0;entryX=0.5;entryY=0;entryDx=0;entryDy=0;entryPerimeter=0;strokeColor=#00CC00;strokeWidth=2;fontStyle=1;" parent="1" source="8y-kme8FLULvX650RVpN-213" target="8y-kme8FLULvX650RVpN-262" edge="1">
          <mxGeometry relative="1" as="geometry">
            <Array as="points">
              <mxPoint x="9119" y="2069" />
              <mxPoint x="9119" y="2270" />
              <mxPoint x="8350" y="2270" />
            </Array>
          </mxGeometry>
        </mxCell>
        <mxCell id="8y-kme8FLULvX650RVpN-213" value="OFFLINE BIOMETRIC COLLECTION - APPOINTMENT OB.1.3.E" style="rounded=0;whiteSpace=wrap;html=1;strokeWidth=2;fontStyle=1;" parent="1" vertex="1">
          <mxGeometry x="8929" y="2029.5" width="170" height="80" as="geometry" />
        </mxCell>
        <mxCell id="8y-kme8FLULvX650RVpN-218" value="APPLICATION APPROVAL_REJECTION OB.1.4.E" style="rounded=0;whiteSpace=wrap;html=1;strokeWidth=2;fontStyle=1;" parent="1" vertex="1">
          <mxGeometry x="9339" y="2365" width="170" height="80" as="geometry" />
        </mxCell>
        <mxCell id="8y-kme8FLULvX650RVpN-231" value="PRE-REGISTRATION&lt;br style=&quot;font-size: 24px;&quot;&gt;OFFLINE" style="text;html=1;align=center;verticalAlign=middle;resizable=0;points=[];autosize=1;strokeColor=none;fillColor=none;fontStyle=1;fontSize=24;horizontal=0;" parent="1" vertex="1">
          <mxGeometry x="8197" y="1940" width="80" height="250" as="geometry" />
        </mxCell>
        <mxCell id="8y-kme8FLULvX650RVpN-232" value="REGISTRATION -&lt;br&gt;BIOMETRIC COLLECTION" style="text;html=1;align=center;verticalAlign=middle;resizable=0;points=[];autosize=1;strokeColor=none;fillColor=none;fontStyle=1;fontSize=24;horizontal=0;" parent="1" vertex="1">
          <mxGeometry x="8185" y="2240" width="80" height="310" as="geometry" />
        </mxCell>
        <mxCell id="8y-kme8FLULvX650RVpN-257" value="" style="edgeStyle=orthogonalEdgeStyle;rounded=0;orthogonalLoop=1;jettySize=auto;html=1;strokeColor=#00CC00;strokeWidth=2;fontStyle=1;" parent="1" source="8y-kme8FLULvX650RVpN-256" target="8y-kme8FLULvX650RVpN-210" edge="1">
          <mxGeometry relative="1" as="geometry" />
        </mxCell>
        <mxCell id="8y-kme8FLULvX650RVpN-258" style="edgeStyle=orthogonalEdgeStyle;rounded=0;orthogonalLoop=1;jettySize=auto;html=1;exitX=0.5;exitY=0;exitDx=0;exitDy=0;exitPerimeter=0;entryX=0;entryY=0.5;entryDx=0;entryDy=0;strokeColor=#00CC00;strokeWidth=2;fontStyle=1;" parent="1" source="8y-kme8FLULvX650RVpN-256" target="8y-kme8FLULvX650RVpN-209" edge="1">
          <mxGeometry relative="1" as="geometry" />
        </mxCell>
        <mxCell id="8y-kme8FLULvX650RVpN-259" style="edgeStyle=orthogonalEdgeStyle;rounded=0;orthogonalLoop=1;jettySize=auto;html=1;exitX=0.5;exitY=1;exitDx=0;exitDy=0;exitPerimeter=0;entryX=0;entryY=0.5;entryDx=0;entryDy=0;strokeColor=#00CC00;strokeWidth=2;fontStyle=1;" parent="1" source="8y-kme8FLULvX650RVpN-256" target="8y-kme8FLULvX650RVpN-211" edge="1">
          <mxGeometry relative="1" as="geometry" />
        </mxCell>
        <mxCell id="8y-kme8FLULvX650RVpN-256" value="&lt;b&gt;START&lt;br&gt;(OFFLINE)&lt;br&gt;&lt;/b&gt;" style="strokeWidth=2;html=1;shape=mxgraph.flowchart.terminator;whiteSpace=wrap;fillColor=#d5e8d4;strokeColor=#82b366;" parent="1" vertex="1">
          <mxGeometry x="8300" y="2050" width="100" height="40" as="geometry" />
        </mxCell>
        <mxCell id="8y-kme8FLULvX650RVpN-269" value="&lt;span style=&quot;font-size: 28px;&quot;&gt;1&lt;/span&gt;" style="ellipse;whiteSpace=wrap;html=1;aspect=fixed;fontSize=12;fontStyle=1;rounded=0;strokeWidth=2;" parent="1" vertex="1">
          <mxGeometry x="8190" y="1536" width="40" height="40" as="geometry" />
        </mxCell>
        <mxCell id="8y-kme8FLULvX650RVpN-340" value="" style="rounded=0;whiteSpace=wrap;html=1;fontSize=19;" parent="1" vertex="1">
          <mxGeometry x="8190" y="2960" width="1400" height="200" as="geometry" />
        </mxCell>
        <mxCell id="8y-kme8FLULvX650RVpN-341" value="" style="rounded=0;whiteSpace=wrap;html=1;fontSize=19;" parent="1" vertex="1">
          <mxGeometry x="8190" y="2750" width="1400" height="210" as="geometry" />
        </mxCell>
        <mxCell id="8y-kme8FLULvX650RVpN-342" value="" style="rounded=0;whiteSpace=wrap;html=1;fontSize=19;" parent="1" vertex="1">
          <mxGeometry x="8190" y="2560" width="1400" height="190" as="geometry" />
        </mxCell>
        <mxCell id="8y-kme8FLULvX650RVpN-343" value="VALIDATION" style="text;html=1;align=center;verticalAlign=middle;resizable=0;points=[];autosize=1;strokeColor=none;fillColor=none;fontStyle=1;fontSize=24;horizontal=0;" parent="1" vertex="1">
          <mxGeometry x="8212" y="2574" width="50" height="160" as="geometry" />
        </mxCell>
        <mxCell id="8y-kme8FLULvX650RVpN-344" value="VERIFICATION" style="text;html=1;align=center;verticalAlign=middle;resizable=0;points=[];autosize=1;strokeColor=none;fillColor=none;fontStyle=1;fontSize=24;horizontal=0;" parent="1" vertex="1">
          <mxGeometry x="8212" y="2770" width="50" height="180" as="geometry" />
        </mxCell>
        <mxCell id="8y-kme8FLULvX650RVpN-345" value="ENROLLMENT&lt;br&gt;AND BINDING" style="text;html=1;align=center;verticalAlign=middle;resizable=0;points=[];autosize=1;strokeColor=none;fillColor=none;fontStyle=1;fontSize=24;horizontal=0;" parent="1" vertex="1">
          <mxGeometry x="8197" y="2965" width="80" height="180" as="geometry" />
        </mxCell>
        <mxCell id="8y-kme8FLULvX650RVpN-346" value="" style="edgeStyle=orthogonalEdgeStyle;rounded=0;orthogonalLoop=1;jettySize=auto;html=1;strokeColor=#00CC00;strokeWidth=2;fontStyle=1;" parent="1" source="8y-kme8FLULvX650RVpN-347" target="8y-kme8FLULvX650RVpN-352" edge="1">
          <mxGeometry relative="1" as="geometry" />
        </mxCell>
        <mxCell id="8y-kme8FLULvX650RVpN-347" value="&lt;b&gt;START&lt;br&gt;(ONLINE)&lt;br&gt;&lt;/b&gt;" style="strokeWidth=2;html=1;shape=mxgraph.flowchart.terminator;whiteSpace=wrap;fillColor=#d5e8d4;strokeColor=#82b366;" parent="1" vertex="1">
          <mxGeometry x="8310" y="2634" width="100" height="40" as="geometry" />
        </mxCell>
        <mxCell id="8y-kme8FLULvX650RVpN-348" value="" style="edgeStyle=orthogonalEdgeStyle;rounded=0;orthogonalLoop=1;jettySize=auto;html=1;strokeColor=#00CC00;strokeWidth=2;fontStyle=1;" parent="1" source="8y-kme8FLULvX650RVpN-349" target="8y-kme8FLULvX650RVpN-355" edge="1">
          <mxGeometry relative="1" as="geometry" />
        </mxCell>
        <mxCell id="8y-kme8FLULvX650RVpN-349" value="&lt;b&gt;START&lt;br&gt;(ONLINE)&lt;br&gt;&lt;/b&gt;" style="strokeWidth=2;html=1;shape=mxgraph.flowchart.terminator;whiteSpace=wrap;fillColor=#d5e8d4;strokeColor=#82b366;" parent="1" vertex="1">
          <mxGeometry x="8300" y="2840" width="100" height="40" as="geometry" />
        </mxCell>
        <mxCell id="8y-kme8FLULvX650RVpN-350" value="&lt;b&gt;END&lt;/b&gt;" style="strokeWidth=2;html=1;shape=mxgraph.flowchart.terminator;whiteSpace=wrap;fillColor=#f8cecc;strokeColor=#b85450;" parent="1" vertex="1">
          <mxGeometry x="9340" y="3035" width="100" height="40" as="geometry" />
        </mxCell>
        <mxCell id="8y-kme8FLULvX650RVpN-351" value="" style="edgeStyle=orthogonalEdgeStyle;rounded=0;orthogonalLoop=1;jettySize=auto;html=1;strokeColor=#00CC00;strokeWidth=2;fontStyle=1;" parent="1" source="8y-kme8FLULvX650RVpN-352" target="8y-kme8FLULvX650RVpN-353" edge="1">
          <mxGeometry relative="1" as="geometry" />
        </mxCell>
        <mxCell id="8y-kme8FLULvX650RVpN-352" value="VALIDATION OF &lt;br&gt;PROOF-OF-IDENTITY AND PROOF-OF-ADDRESS &lt;br&gt;OB.2.A" style="rounded=0;whiteSpace=wrap;html=1;strokeWidth=2;fontStyle=1;" parent="1" vertex="1">
          <mxGeometry x="8450" y="2614" width="170" height="80" as="geometry" />
        </mxCell>
        <mxCell id="8y-kme8FLULvX650RVpN-353" value="VALIDATION OF &lt;br&gt;PROOF-OF-RELATIONSHIP &lt;br&gt;OB.2.B" style="rounded=0;whiteSpace=wrap;html=1;strokeWidth=2;fontStyle=1;" parent="1" vertex="1">
          <mxGeometry x="8660" y="2614" width="170" height="80" as="geometry" />
        </mxCell>
        <mxCell id="8y-kme8FLULvX650RVpN-354" value="" style="edgeStyle=orthogonalEdgeStyle;rounded=0;orthogonalLoop=1;jettySize=auto;html=1;strokeColor=#00CC00;strokeWidth=2;fontStyle=1;" parent="1" source="8y-kme8FLULvX650RVpN-355" target="8y-kme8FLULvX650RVpN-357" edge="1">
          <mxGeometry relative="1" as="geometry" />
        </mxCell>
        <mxCell id="8y-kme8FLULvX650RVpN-355" value="VERIFICATION OF PROOF-OF-IDENTITY&amp;nbsp; &lt;br&gt;OB.3.A" style="rounded=0;whiteSpace=wrap;html=1;strokeWidth=2;fontStyle=1;" parent="1" vertex="1">
          <mxGeometry x="8460" y="2820" width="170" height="80" as="geometry" />
        </mxCell>
        <mxCell id="8y-kme8FLULvX650RVpN-356" value="" style="edgeStyle=orthogonalEdgeStyle;rounded=0;orthogonalLoop=1;jettySize=auto;html=1;strokeColor=#00CC00;strokeWidth=2;fontStyle=1;" parent="1" source="8y-kme8FLULvX650RVpN-357" target="8y-kme8FLULvX650RVpN-358" edge="1">
          <mxGeometry relative="1" as="geometry" />
        </mxCell>
        <mxCell id="8y-kme8FLULvX650RVpN-357" value="VERIFICATION OF PROOF-OF-ADDRESS &lt;br&gt;OB.3.B" style="rounded=0;whiteSpace=wrap;html=1;strokeWidth=2;fontStyle=1;" parent="1" vertex="1">
          <mxGeometry x="8690" y="2820" width="170" height="80" as="geometry" />
        </mxCell>
        <mxCell id="8y-kme8FLULvX650RVpN-358" value="VERIFYING RELATIONSHIP IN PROOF-OF-RELATIONSHIP &lt;br&gt;OB.3.C" style="rounded=0;whiteSpace=wrap;html=1;strokeWidth=2;fontStyle=1;" parent="1" vertex="1">
          <mxGeometry x="8900" y="2820" width="170" height="80" as="geometry" />
        </mxCell>
        <mxCell id="8y-kme8FLULvX650RVpN-359" style="edgeStyle=orthogonalEdgeStyle;rounded=0;orthogonalLoop=1;jettySize=auto;html=1;exitX=1;exitY=0.5;exitDx=0;exitDy=0;entryX=0.5;entryY=0;entryDx=0;entryDy=0;entryPerimeter=0;strokeColor=#00CC00;strokeWidth=2;fontStyle=1;" parent="1" source="8y-kme8FLULvX650RVpN-353" target="8y-kme8FLULvX650RVpN-349" edge="1">
          <mxGeometry relative="1" as="geometry">
            <Array as="points">
              <mxPoint x="8840" y="2654" />
              <mxPoint x="8840" y="2730" />
              <mxPoint x="8350" y="2730" />
            </Array>
          </mxGeometry>
        </mxCell>
        <mxCell id="8y-kme8FLULvX650RVpN-360" value="" style="edgeStyle=orthogonalEdgeStyle;rounded=0;orthogonalLoop=1;jettySize=auto;html=1;strokeColor=#00CC00;strokeWidth=2;fontStyle=1;" parent="1" source="8y-kme8FLULvX650RVpN-361" target="8y-kme8FLULvX650RVpN-363" edge="1">
          <mxGeometry relative="1" as="geometry" />
        </mxCell>
        <mxCell id="8y-kme8FLULvX650RVpN-361" value="CREATING NEW DIGITAL ID ACCOUNT &lt;br&gt;OB.4.A" style="rounded=0;whiteSpace=wrap;html=1;strokeWidth=2;fontStyle=1;" parent="1" vertex="1">
          <mxGeometry x="8470" y="3015" width="170" height="80" as="geometry" />
        </mxCell>
        <mxCell id="8y-kme8FLULvX650RVpN-362" value="" style="edgeStyle=orthogonalEdgeStyle;rounded=0;orthogonalLoop=1;jettySize=auto;html=1;strokeColor=#00CC00;strokeWidth=2;fontStyle=1;" parent="1" source="8y-kme8FLULvX650RVpN-363" target="8y-kme8FLULvX650RVpN-365" edge="1">
          <mxGeometry relative="1" as="geometry" />
        </mxCell>
        <mxCell id="8y-kme8FLULvX650RVpN-363" value="BINDING AUTHENTICATORS TO USER IDENTIFICATION NUMBER&amp;nbsp; &lt;br&gt;OB.4.B" style="rounded=0;whiteSpace=wrap;html=1;strokeWidth=2;fontStyle=1;" parent="1" vertex="1">
          <mxGeometry x="8680" y="3015" width="170" height="80" as="geometry" />
        </mxCell>
        <mxCell id="8y-kme8FLULvX650RVpN-364" value="" style="edgeStyle=orthogonalEdgeStyle;rounded=0;orthogonalLoop=1;jettySize=auto;html=1;strokeColor=#00CC00;strokeWidth=2;fontStyle=1;" parent="1" source="8y-kme8FLULvX650RVpN-365" target="8y-kme8FLULvX650RVpN-367" edge="1">
          <mxGeometry relative="1" as="geometry" />
        </mxCell>
        <mxCell id="8y-kme8FLULvX650RVpN-365" value="DELIVERY OF DIGITAL ID &amp;amp; FTP CREDENTIALS TO SUBSCRIBER &lt;br&gt;OB.4.C" style="rounded=0;whiteSpace=wrap;html=1;strokeWidth=2;fontStyle=1;" parent="1" vertex="1">
          <mxGeometry x="8899" y="3015" width="170" height="80" as="geometry" />
        </mxCell>
        <mxCell id="8y-kme8FLULvX650RVpN-366" value="" style="edgeStyle=orthogonalEdgeStyle;rounded=0;orthogonalLoop=1;jettySize=auto;html=1;strokeColor=#00CC00;strokeWidth=2;fontStyle=1;" parent="1" source="8y-kme8FLULvX650RVpN-367" target="8y-kme8FLULvX650RVpN-350" edge="1">
          <mxGeometry relative="1" as="geometry" />
        </mxCell>
        <mxCell id="8y-kme8FLULvX650RVpN-367" value="ACTIVATION OF DIGITAL ID ACCOUNT &lt;br&gt;OB.4.D" style="rounded=0;whiteSpace=wrap;html=1;strokeWidth=2;fontStyle=1;" parent="1" vertex="1">
          <mxGeometry x="9120" y="3015" width="170" height="80" as="geometry" />
        </mxCell>
        <mxCell id="8y-kme8FLULvX650RVpN-368" value="" style="edgeStyle=orthogonalEdgeStyle;rounded=0;orthogonalLoop=1;jettySize=auto;html=1;strokeColor=#00CC00;strokeWidth=2;fontStyle=1;" parent="1" source="8y-kme8FLULvX650RVpN-369" target="8y-kme8FLULvX650RVpN-361" edge="1">
          <mxGeometry relative="1" as="geometry" />
        </mxCell>
        <mxCell id="8y-kme8FLULvX650RVpN-369" value="&lt;b&gt;START&lt;br&gt;(ONLINE)&lt;br&gt;&lt;/b&gt;" style="strokeWidth=2;html=1;shape=mxgraph.flowchart.terminator;whiteSpace=wrap;fillColor=#d5e8d4;strokeColor=#82b366;" parent="1" vertex="1">
          <mxGeometry x="8310" y="3035" width="100" height="40" as="geometry" />
        </mxCell>
        <mxCell id="8y-kme8FLULvX650RVpN-370" style="edgeStyle=orthogonalEdgeStyle;rounded=0;orthogonalLoop=1;jettySize=auto;html=1;exitX=1;exitY=0.5;exitDx=0;exitDy=0;entryX=0.5;entryY=0;entryDx=0;entryDy=0;entryPerimeter=0;strokeColor=#00CC00;strokeWidth=2;fontStyle=1;" parent="1" source="8y-kme8FLULvX650RVpN-358" target="8y-kme8FLULvX650RVpN-369" edge="1">
          <mxGeometry relative="1" as="geometry">
            <Array as="points">
              <mxPoint x="9090" y="2860" />
              <mxPoint x="9090" y="2980" />
              <mxPoint x="8360" y="2980" />
            </Array>
          </mxGeometry>
        </mxCell>
        <mxCell id="8y-kme8FLULvX650RVpN-229" value="" style="endArrow=none;html=1;rounded=0;entryX=0.114;entryY=-0.001;entryDx=0;entryDy=0;entryPerimeter=0;strokeWidth=2;" parent="1" edge="1">
          <mxGeometry width="50" height="50" relative="1" as="geometry">
            <mxPoint x="8280" y="3160" as="sourcePoint" />
            <mxPoint x="8286.04" y="1579.02" as="targetPoint" />
          </mxGeometry>
        </mxCell>
        <mxCell id="8y-kme8FLULvX650RVpN-261" style="edgeStyle=orthogonalEdgeStyle;rounded=0;orthogonalLoop=1;jettySize=auto;html=1;exitX=1;exitY=0.5;exitDx=0;exitDy=0;entryX=0.5;entryY=0;entryDx=0;entryDy=0;entryPerimeter=0;strokeColor=#00CC00;strokeWidth=2;fontStyle=1;" parent="1" source="8y-kme8FLULvX650RVpN-218" target="8y-kme8FLULvX650RVpN-347" edge="1">
          <mxGeometry relative="1" as="geometry">
            <mxPoint x="9540" y="2405" as="targetPoint" />
            <Array as="points">
              <mxPoint x="9529" y="2405" />
              <mxPoint x="9529" y="2530" />
              <mxPoint x="8360" y="2530" />
            </Array>
          </mxGeometry>
        </mxCell>
        <mxCell id="8y-kme8FLULvX650RVpN-249" value="BIOMETRIC COLLECTION&lt;hr style=&quot;font-size: 14px;&quot;&gt;" style="rounded=0;whiteSpace=wrap;html=1;fillColor=none;perimeterSpacing=2;dashed=1;dashPattern=8 8;align=center;labelPosition=center;verticalLabelPosition=middle;verticalAlign=top;fontStyle=1;fontSize=14;strokeColor=#FF0000;strokeWidth=2;fontColor=#000000;" parent="1" vertex="1">
          <mxGeometry x="8669" y="2320" width="625" height="160" as="geometry" />
        </mxCell>
        <mxCell id="8y-kme8FLULvX650RVpN-245" style="edgeStyle=orthogonalEdgeStyle;rounded=0;orthogonalLoop=1;jettySize=auto;html=1;exitX=1;exitY=0.5;exitDx=0;exitDy=0;entryX=0;entryY=0.5;entryDx=0;entryDy=0;strokeColor=#00CC00;strokeWidth=2;fontStyle=1;" parent="1" source="8y-kme8FLULvX650RVpN-214" target="8y-kme8FLULvX650RVpN-215" edge="1">
          <mxGeometry relative="1" as="geometry" />
        </mxCell>
        <mxCell id="8y-kme8FLULvX650RVpN-214" value="OFFLINE BIOMETRIC COLLECTION_CONSENT OB.1.4.A" style="rounded=0;whiteSpace=wrap;html=1;strokeWidth=2;fontStyle=1;" parent="1" vertex="1">
          <mxGeometry x="8454" y="2365" width="170" height="80" as="geometry" />
        </mxCell>
        <mxCell id="8y-kme8FLULvX650RVpN-246" style="edgeStyle=orthogonalEdgeStyle;rounded=0;orthogonalLoop=1;jettySize=auto;html=1;exitX=1;exitY=0.5;exitDx=0;exitDy=0;entryX=0;entryY=0.5;entryDx=0;entryDy=0;strokeColor=#00CC00;strokeWidth=2;fontStyle=1;" parent="1" source="8y-kme8FLULvX650RVpN-215" target="8y-kme8FLULvX650RVpN-216" edge="1">
          <mxGeometry relative="1" as="geometry" />
        </mxCell>
        <mxCell id="8y-kme8FLULvX650RVpN-215" value="OFFLINE BIOMETRIC COLLECTION_FACIAL DATA OB.1.4.B" style="rounded=0;whiteSpace=wrap;html=1;strokeWidth=2;fontStyle=1;" parent="1" vertex="1">
          <mxGeometry x="8699" y="2365" width="170" height="80" as="geometry" />
        </mxCell>
        <mxCell id="8y-kme8FLULvX650RVpN-247" style="edgeStyle=orthogonalEdgeStyle;rounded=0;orthogonalLoop=1;jettySize=auto;html=1;exitX=1;exitY=0.5;exitDx=0;exitDy=0;strokeColor=#00CC00;strokeWidth=2;fontStyle=1;" parent="1" source="8y-kme8FLULvX650RVpN-216" target="8y-kme8FLULvX650RVpN-217" edge="1">
          <mxGeometry relative="1" as="geometry" />
        </mxCell>
        <mxCell id="8y-kme8FLULvX650RVpN-216" value="OFFLINE BIOMETRIC COLLECTION_FINGERPRINT DATA OB.1.4.C" style="rounded=0;whiteSpace=wrap;html=1;strokeWidth=2;fontStyle=1;" parent="1" vertex="1">
          <mxGeometry x="8899" y="2365" width="170" height="80" as="geometry" />
        </mxCell>
        <mxCell id="8y-kme8FLULvX650RVpN-248" style="edgeStyle=orthogonalEdgeStyle;rounded=0;orthogonalLoop=1;jettySize=auto;html=1;exitX=1;exitY=0.5;exitDx=0;exitDy=0;entryX=0;entryY=0.5;entryDx=0;entryDy=0;strokeColor=#00CC00;strokeWidth=2;fontStyle=1;" parent="1" source="8y-kme8FLULvX650RVpN-217" target="8y-kme8FLULvX650RVpN-218" edge="1">
          <mxGeometry relative="1" as="geometry" />
        </mxCell>
        <mxCell id="8y-kme8FLULvX650RVpN-217" value="OFFLINE BIOMETRIC COLLECTION_IRIS DATA OB.1.4.D" style="rounded=0;whiteSpace=wrap;html=1;strokeWidth=2;fontStyle=1;" parent="1" vertex="1">
          <mxGeometry x="9099" y="2365" width="170" height="80" as="geometry" />
        </mxCell>
        <mxCell id="8y-kme8FLULvX650RVpN-263" style="edgeStyle=orthogonalEdgeStyle;rounded=0;orthogonalLoop=1;jettySize=auto;html=1;exitX=1;exitY=0.5;exitDx=0;exitDy=0;exitPerimeter=0;strokeColor=#00CC00;strokeWidth=2;fontStyle=1;" parent="1" source="8y-kme8FLULvX650RVpN-262" target="8y-kme8FLULvX650RVpN-214" edge="1">
          <mxGeometry relative="1" as="geometry" />
        </mxCell>
        <mxCell id="8y-kme8FLULvX650RVpN-262" value="&lt;b&gt;START&lt;br&gt;(OFFLINE)&lt;br&gt;&lt;/b&gt;" style="strokeWidth=2;html=1;shape=mxgraph.flowchart.terminator;whiteSpace=wrap;fillColor=#d5e8d4;strokeColor=#82b366;" parent="1" vertex="1">
          <mxGeometry x="8300" y="2385" width="100" height="40" as="geometry" />
        </mxCell>
        <mxCell id="8y-kme8FLULvX650RVpN-266" value="ACCOUNT CREATION&lt;hr&gt;" style="rounded=0;whiteSpace=wrap;html=1;fillColor=none;perimeterSpacing=2;dashed=1;dashPattern=8 8;align=center;labelPosition=center;verticalLabelPosition=middle;verticalAlign=top;fontStyle=1;fontSize=14;strokeWidth=2;strokeColor=#FF0000;fontColor=#000000;" parent="1" vertex="1">
          <mxGeometry x="8430" y="1660" width="420" height="140" as="geometry" />
        </mxCell>
        <mxCell id="8y-kme8FLULvX650RVpN-237" style="edgeStyle=orthogonalEdgeStyle;rounded=0;orthogonalLoop=1;jettySize=auto;html=1;exitX=1;exitY=0.5;exitDx=0;exitDy=0;entryX=0;entryY=0.5;entryDx=0;entryDy=0;strokeColor=#00CC00;strokeWidth=2;fontStyle=1;" parent="1" source="8y-kme8FLULvX650RVpN-204" target="8y-kme8FLULvX650RVpN-205" edge="1">
          <mxGeometry relative="1" as="geometry" />
        </mxCell>
        <mxCell id="8y-kme8FLULvX650RVpN-204" value="REGISTER NEW ACCOUNT OB.1.1.A" style="rounded=0;whiteSpace=wrap;html=1;strokeWidth=2;fontStyle=1;" parent="1" vertex="1">
          <mxGeometry x="8454" y="1703.5" width="175" height="69.5" as="geometry" />
        </mxCell>
        <mxCell id="8y-kme8FLULvX650RVpN-238" style="edgeStyle=orthogonalEdgeStyle;rounded=0;orthogonalLoop=1;jettySize=auto;html=1;exitX=1;exitY=0.25;exitDx=0;exitDy=0;entryX=0;entryY=0.5;entryDx=0;entryDy=0;strokeColor=#00CC00;strokeWidth=2;fontStyle=1;" parent="1" source="8y-kme8FLULvX650RVpN-205" target="8y-kme8FLULvX650RVpN-206" edge="1">
          <mxGeometry relative="1" as="geometry" />
        </mxCell>
        <mxCell id="8y-kme8FLULvX650RVpN-239" style="edgeStyle=orthogonalEdgeStyle;rounded=0;orthogonalLoop=1;jettySize=auto;html=1;exitX=1;exitY=0.5;exitDx=0;exitDy=0;entryX=0;entryY=0.5;entryDx=0;entryDy=0;strokeColor=#00CC00;strokeWidth=2;fontStyle=1;" parent="1" source="8y-kme8FLULvX650RVpN-205" target="8y-kme8FLULvX650RVpN-207" edge="1">
          <mxGeometry relative="1" as="geometry" />
        </mxCell>
        <mxCell id="8y-kme8FLULvX650RVpN-240" style="edgeStyle=orthogonalEdgeStyle;rounded=0;orthogonalLoop=1;jettySize=auto;html=1;exitX=1;exitY=0.75;exitDx=0;exitDy=0;entryX=0;entryY=0.5;entryDx=0;entryDy=0;strokeColor=#00CC00;strokeWidth=2;fontStyle=1;" parent="1" source="8y-kme8FLULvX650RVpN-205" target="8y-kme8FLULvX650RVpN-208" edge="1">
          <mxGeometry relative="1" as="geometry" />
        </mxCell>
        <mxCell id="8y-kme8FLULvX650RVpN-205" value="INITIATING AN ONLINE APPLICATION&lt;br&gt;OB.1.1.B" style="rounded=0;whiteSpace=wrap;html=1;strokeWidth=2;fontStyle=1;" parent="1" vertex="1">
          <mxGeometry x="8664" y="1703.5" width="170" height="70" as="geometry" />
        </mxCell>
        <mxCell id="8y-kme8FLULvX650RVpN-230" value="PRE-REGISTRATION&lt;br style=&quot;font-size: 24px;&quot;&gt;ONLINE" style="text;html=1;align=center;verticalAlign=middle;resizable=0;points=[];autosize=1;strokeColor=none;fillColor=none;fontStyle=1;fontSize=24;horizontal=0;" parent="1" vertex="1">
          <mxGeometry x="8197" y="1613.25" width="80" height="250" as="geometry" />
        </mxCell>
        <mxCell id="8y-kme8FLULvX650RVpN-255" value="" style="edgeStyle=orthogonalEdgeStyle;rounded=0;orthogonalLoop=1;jettySize=auto;html=1;strokeColor=#00CC00;strokeWidth=2;fontStyle=1;" parent="1" source="8y-kme8FLULvX650RVpN-254" target="8y-kme8FLULvX650RVpN-204" edge="1">
          <mxGeometry relative="1" as="geometry" />
        </mxCell>
        <mxCell id="8y-kme8FLULvX650RVpN-254" value="&lt;b&gt;START&lt;br&gt;(ONLINE)&lt;br&gt;&lt;/b&gt;" style="strokeWidth=2;html=1;shape=mxgraph.flowchart.terminator;whiteSpace=wrap;fillColor=#d5e8d4;strokeColor=#82b366;" parent="1" vertex="1">
          <mxGeometry x="8300" y="1718.25" width="100" height="40" as="geometry" />
        </mxCell>
        <mxCell id="8y-kme8FLULvX650RVpN-484" value="" style="rounded=0;whiteSpace=wrap;html=1;fontSize=25;fillColor=#f5f5f5;fontColor=#333333;strokeColor=#666666;direction=east;strokeWidth=2;fontStyle=1" parent="1" vertex="1">
          <mxGeometry x="3790" y="1490" width="1340" height="990" as="geometry" />
        </mxCell>
        <mxCell id="8y-kme8FLULvX650RVpN-485" value="" style="rounded=0;whiteSpace=wrap;html=1;fontSize=19;" parent="1" vertex="1">
          <mxGeometry x="3820" y="2040" width="1270" height="200" as="geometry" />
        </mxCell>
        <mxCell id="8y-kme8FLULvX650RVpN-486" value="" style="rounded=0;whiteSpace=wrap;html=1;fontSize=19;" parent="1" vertex="1">
          <mxGeometry x="3820" y="1780" width="1270" height="260" as="geometry" />
        </mxCell>
        <mxCell id="8y-kme8FLULvX650RVpN-487" value="" style="rounded=0;whiteSpace=wrap;html=1;fontSize=19;" parent="1" vertex="1">
          <mxGeometry x="3820" y="1540" width="1270" height="240" as="geometry" />
        </mxCell>
        <mxCell id="8y-kme8FLULvX650RVpN-488" value="ID LIFECYCLE MANAGEMENT" style="text;html=1;align=center;verticalAlign=middle;resizable=0;points=[];autosize=1;strokeColor=none;fillColor=none;fontStyle=1;fontSize=30;" parent="1" vertex="1">
          <mxGeometry x="4295" y="1491" width="460" height="50" as="geometry" />
        </mxCell>
        <mxCell id="8y-kme8FLULvX650RVpN-515" value="" style="rounded=0;whiteSpace=wrap;html=1;fontSize=19;" parent="1" vertex="1">
          <mxGeometry x="3820" y="2240" width="1270" height="200" as="geometry" />
        </mxCell>
        <mxCell id="8y-kme8FLULvX650RVpN-516" value="REVOCATION" style="text;html=1;align=center;verticalAlign=middle;resizable=0;points=[];autosize=1;strokeColor=none;fillColor=none;fontStyle=1;fontSize=24;horizontal=0;" parent="1" vertex="1">
          <mxGeometry x="3842" y="2249" width="50" height="170" as="geometry" />
        </mxCell>
        <mxCell id="8y-kme8FLULvX650RVpN-544" value="" style="endArrow=none;html=1;rounded=0;strokeWidth=2;exitX=0.066;exitY=1.001;exitDx=0;exitDy=0;exitPerimeter=0;" parent="1" source="8y-kme8FLULvX650RVpN-515" edge="1">
          <mxGeometry width="50" height="50" relative="1" as="geometry">
            <mxPoint x="3910" y="2440" as="sourcePoint" />
            <mxPoint x="3916" y="1540" as="targetPoint" />
          </mxGeometry>
        </mxCell>
        <mxCell id="8y-kme8FLULvX650RVpN-569" value="UPDATE ONLINE_BIOMETRICS DATA LM.1.C" style="rounded=0;whiteSpace=wrap;html=1;strokeWidth=2;fontStyle=1;" parent="1" vertex="1">
          <mxGeometry x="4404" y="1618.25" width="170" height="80" as="geometry" />
        </mxCell>
        <mxCell id="8y-kme8FLULvX650RVpN-570" value="UPDATE OFFLINE_BIOMETRICS DATA LM.1.D" style="rounded=0;whiteSpace=wrap;html=1;strokeWidth=2;fontStyle=1;" parent="1" vertex="1">
          <mxGeometry x="4594" y="1620" width="170" height="80" as="geometry" />
        </mxCell>
        <mxCell id="8y-kme8FLULvX650RVpN-575" value="EXPIRY AND RENEWAL OF AUTHENTICATORS (OTP, TOKEN VALIDITY) &lt;br&gt;LM.4.B" style="rounded=0;whiteSpace=wrap;html=1;strokeWidth=2;fontStyle=1;" parent="1" vertex="1">
          <mxGeometry x="4310" y="2102" width="170" height="80" as="geometry" />
        </mxCell>
        <mxCell id="8y-kme8FLULvX650RVpN-576" value="TEMPORARY ACCOUNT SUSPENSION (FRAUD, INELIGIBILITY, GOVERNMENT ORDER) LM.5.A" style="rounded=0;whiteSpace=wrap;html=1;strokeWidth=2;fontStyle=1;" parent="1" vertex="1">
          <mxGeometry x="3980" y="2300" width="170" height="80" as="geometry" />
        </mxCell>
        <mxCell id="8y-kme8FLULvX650RVpN-577" value="PERMANENT ACCOUNT DELETION (BY CHOICE) LM.5.B" style="rounded=0;whiteSpace=wrap;html=1;strokeWidth=2;fontStyle=1;" parent="1" vertex="1">
          <mxGeometry x="4234" y="2300" width="170" height="80" as="geometry" />
        </mxCell>
        <mxCell id="8y-kme8FLULvX650RVpN-578" value="PERMANENT ACCOUNT DELETION (UPON DEATH) LM.5.C" style="rounded=0;whiteSpace=wrap;html=1;strokeWidth=2;fontStyle=1;" parent="1" vertex="1">
          <mxGeometry x="4440" y="2300" width="170" height="80" as="geometry" />
        </mxCell>
        <mxCell id="8y-kme8FLULvX650RVpN-580" value="UPDATE BIOMETRICS" style="rounded=0;whiteSpace=wrap;html=1;fillColor=none;perimeterSpacing=2;dashed=1;dashPattern=8 8;align=center;labelPosition=center;verticalLabelPosition=middle;verticalAlign=top;fontStyle=1;fontSize=14;strokeWidth=2;strokeColor=#FF0000;fontColor=#000000;" parent="1" vertex="1">
          <mxGeometry x="4384" y="1589.25" width="400" height="129" as="geometry" />
        </mxCell>
        <mxCell id="8y-kme8FLULvX650RVpN-579" value="UPDATE PERSONALLY IDENTIFIABLE INFORMATION" style="rounded=0;whiteSpace=wrap;html=1;fillColor=none;perimeterSpacing=2;dashed=1;dashPattern=8 8;align=center;labelPosition=center;verticalLabelPosition=middle;verticalAlign=top;fontStyle=1;fontSize=14;strokeWidth=2;strokeColor=#FF0000;fontColor=#000000;" parent="1" vertex="1">
          <mxGeometry x="3950" y="1591" width="400" height="129" as="geometry" />
        </mxCell>
        <mxCell id="8y-kme8FLULvX650RVpN-583" value="REPORTING" style="rounded=0;whiteSpace=wrap;html=1;fillColor=none;perimeterSpacing=2;dashed=1;dashPattern=8 8;align=center;labelPosition=center;verticalLabelPosition=middle;verticalAlign=top;fontStyle=1;fontSize=14;strokeWidth=2;strokeColor=#FF0000;fontColor=#000000;" parent="1" vertex="1">
          <mxGeometry x="3989" y="1840" width="410" height="129" as="geometry" />
        </mxCell>
        <mxCell id="8y-kme8FLULvX650RVpN-506" value="COMPROMISED&lt;br&gt;AUTHENTICATORS" style="text;html=1;align=center;verticalAlign=middle;resizable=0;points=[];autosize=1;strokeColor=none;fillColor=none;fontStyle=1;fontSize=24;horizontal=0;" parent="1" vertex="1">
          <mxGeometry x="3827" y="1792.5" width="80" height="230" as="geometry" />
        </mxCell>
        <mxCell id="8y-kme8FLULvX650RVpN-512" value="&lt;span style=&quot;font-size: 28px;&quot;&gt;3&lt;/span&gt;" style="ellipse;whiteSpace=wrap;html=1;aspect=fixed;fontSize=12;fontStyle=1;rounded=0;strokeWidth=2;" parent="1" vertex="1">
          <mxGeometry x="3820" y="1496" width="40" height="40" as="geometry" />
        </mxCell>
        <mxCell id="8y-kme8FLULvX650RVpN-564" value="ISSUING AND&amp;nbsp;&lt;br&gt;RECORDING" style="text;html=1;align=center;verticalAlign=middle;resizable=0;points=[];autosize=1;strokeColor=none;fillColor=none;fontStyle=1;fontSize=24;horizontal=0;" parent="1" vertex="1">
          <mxGeometry x="3830" y="1565" width="80" height="180" as="geometry" />
        </mxCell>
        <mxCell id="8y-kme8FLULvX650RVpN-567" value="UPDATING ONLINE_PERSONALLY IDENTIFIABLE INFORMATION &lt;br&gt;LM.1.A" style="rounded=0;whiteSpace=wrap;html=1;strokeWidth=2;fontStyle=1;" parent="1" vertex="1">
          <mxGeometry x="3970" y="1620" width="170" height="80" as="geometry" />
        </mxCell>
        <mxCell id="8y-kme8FLULvX650RVpN-568" value="UPDATING OFFLINE_PERSONALLY IDENTIFIABLE INFORMATION &lt;br&gt;LM.1.B" style="rounded=0;whiteSpace=wrap;html=1;strokeWidth=2;fontStyle=1;" parent="1" vertex="1">
          <mxGeometry x="4160" y="1620" width="170" height="80" as="geometry" />
        </mxCell>
        <mxCell id="8y-kme8FLULvX650RVpN-572" value="REPORTING ONLINE&lt;br&gt;COMPROMISED AUTHENTICATORS&amp;nbsp; &lt;br&gt;LM.3.A" style="rounded=0;whiteSpace=wrap;html=1;strokeWidth=2;fontStyle=1;" parent="1" vertex="1">
          <mxGeometry x="4009" y="1873" width="170" height="80" as="geometry" />
        </mxCell>
        <mxCell id="8y-kme8FLULvX650RVpN-573" value="REPORTING OFFLINE&lt;br&gt;COMPROMISED AUTHENTICATORS &lt;br&gt;LM.3.B" style="rounded=0;whiteSpace=wrap;html=1;strokeWidth=2;fontStyle=1;" parent="1" vertex="1">
          <mxGeometry x="4209" y="1873" width="170" height="80" as="geometry" />
        </mxCell>
        <mxCell id="8y-kme8FLULvX650RVpN-588" value="AUTHENTICATOR(s)" style="rounded=0;whiteSpace=wrap;html=1;fillColor=none;perimeterSpacing=2;dashed=1;dashPattern=8 8;align=center;labelPosition=center;verticalLabelPosition=middle;verticalAlign=top;fontStyle=1;fontSize=14;strokeWidth=2;strokeColor=#FF0000;fontColor=#000000;" parent="1" vertex="1">
          <mxGeometry x="4279.5" y="2072" width="231" height="129" as="geometry" />
        </mxCell>
        <mxCell id="8y-kme8FLULvX650RVpN-589" value="TEMPORARY" style="rounded=0;whiteSpace=wrap;html=1;fillColor=none;perimeterSpacing=2;dashed=1;dashPattern=8 8;align=center;labelPosition=center;verticalLabelPosition=middle;verticalAlign=top;fontStyle=1;fontSize=14;strokeWidth=2;strokeColor=#FF0000;fontColor=#000000;" parent="1" vertex="1">
          <mxGeometry x="3950" y="2269.5" width="231" height="129" as="geometry" />
        </mxCell>
        <mxCell id="8y-kme8FLULvX650RVpN-590" value="PERMANENT" style="rounded=0;whiteSpace=wrap;html=1;fillColor=none;perimeterSpacing=2;dashed=1;dashPattern=8 8;align=center;labelPosition=center;verticalLabelPosition=middle;verticalAlign=top;fontStyle=1;fontSize=14;strokeWidth=2;strokeColor=#FF0000;fontColor=#000000;" parent="1" vertex="1">
          <mxGeometry x="4220" y="2270" width="410" height="129" as="geometry" />
        </mxCell>
        <mxCell id="8y-kme8FLULvX650RVpN-581" value="LOST/DAMAGED DID CARD" style="rounded=0;whiteSpace=wrap;html=1;fillColor=none;perimeterSpacing=2;dashed=1;dashPattern=8 8;align=center;labelPosition=center;verticalLabelPosition=middle;verticalAlign=top;fontStyle=1;fontSize=14;strokeWidth=2;strokeColor=#FF0000;fontColor=#000000;" parent="1" vertex="1">
          <mxGeometry x="4830" y="1589.25" width="210" height="129" as="geometry" />
        </mxCell>
        <mxCell id="8y-kme8FLULvX650RVpN-571" value="REQUEST NEW DID PHYSICAL CARD (LOST_THEFT_DAMAGED) LM.1.E" style="rounded=0;whiteSpace=wrap;html=1;strokeWidth=2;fontStyle=1;" parent="1" vertex="1">
          <mxGeometry x="4850" y="1623.5" width="170" height="80" as="geometry" />
        </mxCell>
        <mxCell id="8y-kme8FLULvX650RVpN-586" value="DID ACCOUNT" style="rounded=0;whiteSpace=wrap;html=1;fillColor=none;perimeterSpacing=2;dashed=1;dashPattern=8 8;align=center;labelPosition=center;verticalLabelPosition=middle;verticalAlign=top;fontStyle=1;fontSize=14;strokeWidth=2;strokeColor=#FF0000;fontColor=#000000;" parent="1" vertex="1">
          <mxGeometry x="3969" y="2072" width="231" height="129" as="geometry" />
        </mxCell>
        <mxCell id="8y-kme8FLULvX650RVpN-507" value="EXPIRY AND&lt;br&gt;&amp;nbsp;RENEWAL" style="text;html=1;align=center;verticalAlign=middle;resizable=0;points=[];autosize=1;strokeColor=none;fillColor=none;fontStyle=1;fontSize=24;horizontal=0;" parent="1" vertex="1">
          <mxGeometry x="3827" y="2054" width="80" height="160" as="geometry" />
        </mxCell>
        <mxCell id="8y-kme8FLULvX650RVpN-574" value="EXPIRY AND RENEWAL OF DID ACCOUNT &lt;br&gt;LM.4.A" style="rounded=0;whiteSpace=wrap;html=1;strokeWidth=2;fontStyle=1;" parent="1" vertex="1">
          <mxGeometry x="4000" y="2102" width="170" height="80" as="geometry" />
        </mxCell>
        <mxCell id="8y-kme8FLULvX650RVpN-372" value="" style="rounded=0;whiteSpace=wrap;html=1;fontSize=25;fillColor=#f5f5f5;fontColor=#333333;strokeColor=#666666;direction=east;strokeWidth=2;fontStyle=1" parent="1" vertex="1">
          <mxGeometry x="5790" y="1470" width="1450" height="1020" as="geometry" />
        </mxCell>
        <mxCell id="8y-kme8FLULvX650RVpN-373" value="" style="rounded=0;whiteSpace=wrap;html=1;fontSize=19;" parent="1" vertex="1">
          <mxGeometry x="5820" y="2130" width="1400" height="330" as="geometry" />
        </mxCell>
        <mxCell id="8y-kme8FLULvX650RVpN-374" value="" style="rounded=0;whiteSpace=wrap;html=1;fontSize=19;" parent="1" vertex="1">
          <mxGeometry x="5820" y="1840" width="1400" height="290" as="geometry" />
        </mxCell>
        <mxCell id="8y-kme8FLULvX650RVpN-375" value="" style="rounded=0;whiteSpace=wrap;html=1;fontSize=19;" parent="1" vertex="1">
          <mxGeometry x="5820" y="1520" width="1400" height="320" as="geometry" />
        </mxCell>
        <mxCell id="8y-kme8FLULvX650RVpN-376" value="AUTHENTICATION" style="text;html=1;align=center;verticalAlign=middle;resizable=0;points=[];autosize=1;strokeColor=none;fillColor=none;fontStyle=1;fontSize=30;" parent="1" vertex="1">
          <mxGeometry x="6450" y="1470" width="290" height="50" as="geometry" />
        </mxCell>
        <mxCell id="8y-kme8FLULvX650RVpN-394" value="OWNERSHIP FACTOR" style="text;html=1;align=center;verticalAlign=middle;resizable=0;points=[];autosize=1;strokeColor=none;fillColor=none;fontStyle=1;fontSize=24;horizontal=0;" parent="1" vertex="1">
          <mxGeometry x="5842" y="1850" width="50" height="270" as="geometry" />
        </mxCell>
        <mxCell id="8y-kme8FLULvX650RVpN-395" value="INHERENCE FACTOR" style="text;html=1;align=center;verticalAlign=middle;resizable=0;points=[];autosize=1;strokeColor=none;fillColor=none;fontStyle=1;fontSize=24;horizontal=0;" parent="1" vertex="1">
          <mxGeometry x="5842" y="2165" width="50" height="260" as="geometry" />
        </mxCell>
        <mxCell id="8y-kme8FLULvX650RVpN-400" value="&lt;span style=&quot;font-size: 28px;&quot;&gt;2&lt;/span&gt;" style="ellipse;whiteSpace=wrap;html=1;aspect=fixed;fontSize=12;fontStyle=1;rounded=0;strokeWidth=2;" parent="1" vertex="1">
          <mxGeometry x="5820" y="1476" width="40" height="40" as="geometry" />
        </mxCell>
        <mxCell id="8y-kme8FLULvX650RVpN-432" value="" style="endArrow=none;html=1;rounded=0;entryX=0.114;entryY=-0.001;entryDx=0;entryDy=0;entryPerimeter=0;strokeWidth=2;" parent="1" edge="1">
          <mxGeometry width="50" height="50" relative="1" as="geometry">
            <mxPoint x="5910" y="2460" as="sourcePoint" />
            <mxPoint x="5916.040000000001" y="1519.02" as="targetPoint" />
          </mxGeometry>
        </mxCell>
        <mxCell id="8y-kme8FLULvX650RVpN-452" value="KNOWLEDGE FACTOR" style="text;html=1;align=center;verticalAlign=middle;resizable=0;points=[];autosize=1;strokeColor=none;fillColor=none;fontStyle=1;fontSize=24;horizontal=0;" parent="1" vertex="1">
          <mxGeometry x="5842" y="1538.25" width="50" height="280" as="geometry" />
        </mxCell>
        <mxCell id="8y-kme8FLULvX650RVpN-455" value="CREATION OF STRONG PASSWORD &lt;br&gt;AU.1.A" style="rounded=0;whiteSpace=wrap;html=1;strokeWidth=2;fontStyle=1;" parent="1" vertex="1">
          <mxGeometry x="5960" y="1640" width="170" height="80" as="geometry" />
        </mxCell>
        <mxCell id="8y-kme8FLULvX650RVpN-456" value="PASSWORD-BASED AUTHENTICATION &lt;br&gt;AU.1.B" style="rounded=0;whiteSpace=wrap;html=1;strokeWidth=2;fontStyle=1;" parent="1" vertex="1">
          <mxGeometry x="6150" y="1640" width="170" height="80" as="geometry" />
        </mxCell>
        <mxCell id="8y-kme8FLULvX650RVpN-457" value="CREATION OF MEMORABLE SECRET &lt;br&gt;AU.1.C" style="rounded=0;whiteSpace=wrap;html=1;strokeWidth=2;fontStyle=1;" parent="1" vertex="1">
          <mxGeometry x="6381" y="1640" width="170" height="80" as="geometry" />
        </mxCell>
        <mxCell id="8y-kme8FLULvX650RVpN-458" value="MEMORABLE SECRET-BASED AUTHENTICATION AU.1.D" style="rounded=0;whiteSpace=wrap;html=1;strokeWidth=2;fontStyle=1;" parent="1" vertex="1">
          <mxGeometry x="6571" y="1640" width="170" height="80" as="geometry" />
        </mxCell>
        <mxCell id="8y-kme8FLULvX650RVpN-459" value="CREATION OF PERSONAL IDENTIFICATION NUMBER AU.1.E" style="rounded=0;whiteSpace=wrap;html=1;strokeWidth=2;fontStyle=1;" parent="1" vertex="1">
          <mxGeometry x="6804" y="1640" width="170" height="80" as="geometry" />
        </mxCell>
        <mxCell id="8y-kme8FLULvX650RVpN-460" value="PERSONAL IDENTIFICATION NUMBER BASED AUTHENTICATION &lt;br&gt;AU.1.F" style="rounded=0;whiteSpace=wrap;html=1;strokeWidth=2;fontStyle=1;" parent="1" vertex="1">
          <mxGeometry x="6994" y="1640" width="170" height="80" as="geometry" />
        </mxCell>
        <mxCell id="8y-kme8FLULvX650RVpN-461" value="PASSWORD" style="rounded=0;whiteSpace=wrap;html=1;fillColor=none;perimeterSpacing=2;dashed=1;dashPattern=8 8;align=center;labelPosition=center;verticalLabelPosition=middle;verticalAlign=top;fontStyle=1;fontSize=14;strokeWidth=2;strokeColor=#FF0000;fontColor=#000000;" parent="1" vertex="1">
          <mxGeometry x="5940" y="1600" width="400" height="140" as="geometry" />
        </mxCell>
        <mxCell id="8y-kme8FLULvX650RVpN-462" value="MEMORABLE SECRET" style="rounded=0;whiteSpace=wrap;html=1;fillColor=none;perimeterSpacing=2;dashed=1;dashPattern=8 8;align=center;labelPosition=center;verticalLabelPosition=middle;verticalAlign=top;fontStyle=1;fontSize=14;strokeWidth=2;strokeColor=#FF0000;fontColor=#000000;" parent="1" vertex="1">
          <mxGeometry x="6364" y="1600" width="400" height="140" as="geometry" />
        </mxCell>
        <mxCell id="8y-kme8FLULvX650RVpN-463" value="PERSONAL IDENTIFICATION NUMBER (PIN)" style="rounded=0;whiteSpace=wrap;html=1;fillColor=none;perimeterSpacing=2;dashed=1;dashPattern=8 8;align=center;labelPosition=center;verticalLabelPosition=middle;verticalAlign=top;fontStyle=1;fontSize=14;strokeWidth=2;strokeColor=#FF0000;fontColor=#000000;" parent="1" vertex="1">
          <mxGeometry x="6794" y="1600" width="400" height="140" as="geometry" />
        </mxCell>
        <mxCell id="8y-kme8FLULvX650RVpN-469" value="BIOMETRIC AUTHENTICATION FINGERPRINT DATA &lt;br&gt;AU.3.B" style="rounded=0;whiteSpace=wrap;html=1;strokeWidth=2;fontStyle=1;" parent="1" vertex="1">
          <mxGeometry x="6220" y="2255" width="170" height="80" as="geometry" />
        </mxCell>
        <mxCell id="8y-kme8FLULvX650RVpN-470" value="BIOMETRIC AUTHENTICATION &lt;br&gt;IRIS DATA &lt;br&gt;AU.3.C" style="rounded=0;whiteSpace=wrap;html=1;strokeWidth=2;fontStyle=1;" parent="1" vertex="1">
          <mxGeometry x="6435" y="2255" width="170" height="80" as="geometry" />
        </mxCell>
        <mxCell id="8y-kme8FLULvX650RVpN-471" value="BIOMETRIC AUTHENTICATION&lt;br&gt;FACIAL DATA &lt;br&gt;AU.3.D" style="rounded=0;whiteSpace=wrap;html=1;strokeWidth=2;fontStyle=1;" parent="1" vertex="1">
          <mxGeometry x="6650" y="2255" width="170" height="80" as="geometry" />
        </mxCell>
        <mxCell id="8y-kme8FLULvX650RVpN-482" style="edgeStyle=orthogonalEdgeStyle;rounded=0;orthogonalLoop=1;jettySize=auto;html=1;exitX=1;exitY=0.5;exitDx=0;exitDy=0;entryX=0;entryY=0.5;entryDx=0;entryDy=0;strokeColor=#00CC00;strokeWidth=2;fontStyle=1;" parent="1" source="8y-kme8FLULvX650RVpN-472" target="8y-kme8FLULvX650RVpN-481" edge="1">
          <mxGeometry relative="1" as="geometry" />
        </mxCell>
        <mxCell id="8y-kme8FLULvX650RVpN-472" value="OBTAINING CLAIMANT CONSENT &lt;br&gt;AU.3.A" style="rounded=0;whiteSpace=wrap;html=1;strokeWidth=2;fontStyle=1;" parent="1" vertex="1">
          <mxGeometry x="5980" y="2252" width="170" height="80" as="geometry" />
        </mxCell>
        <mxCell id="8y-kme8FLULvX650RVpN-481" value="BIOMETRIC" style="rounded=0;whiteSpace=wrap;html=1;fillColor=none;perimeterSpacing=2;dashed=1;dashPattern=8 8;align=center;labelPosition=center;verticalLabelPosition=middle;verticalAlign=top;fontStyle=1;fontSize=14;strokeWidth=2;strokeColor=#FF0000;fontColor=#000000;" parent="1" vertex="1">
          <mxGeometry x="6200" y="2217" width="640" height="150" as="geometry" />
        </mxCell>
        <mxCell id="8y-kme8FLULvX650RVpN-479" value="MULTI-USER ONE-TIME PASSWORD" style="rounded=0;whiteSpace=wrap;html=1;fillColor=none;perimeterSpacing=2;dashed=1;dashPattern=8 8;align=center;labelPosition=center;verticalLabelPosition=middle;verticalAlign=top;fontStyle=1;fontSize=14;strokeWidth=2;strokeColor=#FF0000;fontColor=#000000;" parent="1" vertex="1">
          <mxGeometry x="5946" y="1906" width="580" height="140" as="geometry" />
        </mxCell>
        <mxCell id="8y-kme8FLULvX650RVpN-483" style="edgeStyle=orthogonalEdgeStyle;rounded=0;orthogonalLoop=1;jettySize=auto;html=1;exitX=0.5;exitY=1;exitDx=0;exitDy=0;entryX=0.5;entryY=1;entryDx=0;entryDy=0;strokeColor=#00CC00;strokeWidth=2;fontStyle=1;" parent="1" source="8y-kme8FLULvX650RVpN-464" target="8y-kme8FLULvX650RVpN-465" edge="1">
          <mxGeometry relative="1" as="geometry" />
        </mxCell>
        <mxCell id="8y-kme8FLULvX650RVpN-464" value="GENERATION OF ONE-TIME PASSWORD&lt;br&gt;AU.2.A" style="rounded=0;whiteSpace=wrap;html=1;strokeWidth=2;fontStyle=1;" parent="1" vertex="1">
          <mxGeometry x="5960" y="1936" width="170" height="80" as="geometry" />
        </mxCell>
        <mxCell id="8y-kme8FLULvX650RVpN-465" value="MULTI-USER ONE-TIME PASSWORD AUTHENTICATION &lt;br&gt;AU.2.C" style="rounded=0;whiteSpace=wrap;html=1;strokeWidth=2;fontStyle=1;" parent="1" vertex="1">
          <mxGeometry x="6340" y="1936" width="170" height="80" as="geometry" />
        </mxCell>
        <mxCell id="8y-kme8FLULvX650RVpN-466" value="CREATION OF MULTI-USER ONE-TIME PASSWORD AU.2.B" style="rounded=0;whiteSpace=wrap;html=1;strokeWidth=2;fontStyle=1;" parent="1" vertex="1">
          <mxGeometry x="6150" y="1936" width="170" height="80" as="geometry" />
        </mxCell>
        <mxCell id="8y-kme8FLULvX650RVpN-480" value="TOKEN" style="rounded=0;whiteSpace=wrap;html=1;fillColor=none;perimeterSpacing=2;dashed=1;dashPattern=8 8;align=center;labelPosition=center;verticalLabelPosition=middle;verticalAlign=top;fontStyle=1;fontSize=14;strokeWidth=2;strokeColor=#FF0000;fontColor=#000000;" parent="1" vertex="1">
          <mxGeometry x="6646" y="1901" width="400" height="140" as="geometry" />
        </mxCell>
        <mxCell id="8y-kme8FLULvX650RVpN-467" value="GENERATION OF TOKEN (SHARED CODE) &lt;br&gt;AU.2.D" style="rounded=0;whiteSpace=wrap;html=1;strokeWidth=2;fontStyle=1;" parent="1" vertex="1">
          <mxGeometry x="6660" y="1931" width="170" height="80" as="geometry" />
        </mxCell>
        <mxCell id="8y-kme8FLULvX650RVpN-468" value="TOKEN-BASED AUTHENTICATION &lt;br&gt;AU.2.E" style="rounded=0;whiteSpace=wrap;html=1;strokeWidth=2;fontStyle=1;" parent="1" vertex="1">
          <mxGeometry x="6860" y="1931" width="170" height="80" as="geometry" />
        </mxCell>
        <mxCell id="r0aLrh1nLlWJ8pzUcOV7-1" value="LM.2: BINDING is not considered as this is incorporated within the processes such as" style="text;html=1;align=center;verticalAlign=middle;resizable=0;points=[];autosize=1;strokeColor=none;fillColor=none;fontStyle=1" vertex="1" parent="1">
          <mxGeometry x="3820.5" y="2440" width="510" height="30" as="geometry" />
        </mxCell>
      </root>
    </mxGraphModel>
  </diagram>
</mxfile>
